HIERARCHY
ROOT SpineBase
{
  OFFSET 0.000000 0.000000 0.000000
  CHANNELS 6 Xposition Yposition Zposition Zrotation Xrotation Yrotation
  JOINT SpineMid
  {
    OFFSET 0.000000 30.220864 0.000000
    CHANNELS 3 Zrotation Xrotation Yrotation
    JOINT SpineShoulder
    {
      OFFSET 0.006076 22.461132 -0.715063
      CHANNELS 3 Zrotation Xrotation Yrotation
      JOINT Neck
      {
        OFFSET 0.036341 7.432895 -0.556742
        CHANNELS 3 Zrotation Xrotation Yrotation
        JOINT Head
        {
          OFFSET -0.836806 15.296016 -2.153810
          CHANNELS 3 Zrotation Xrotation Yrotation
          End Site
          {
            OFFSET 0 0 0
          }
        }
      }
      JOINT ShoulderLeft
      {
        OFFSET -18.131381 -2.902056 0.039483
        CHANNELS 3 Zrotation Xrotation Yrotation
        JOINT ElbowLeft
        {
          OFFSET -2.576997 -25.321606 -0.876713
          CHANNELS 3 Zrotation Xrotation Yrotation
          JOINT WristLeft
          {
            OFFSET 0.858087 -20.118410 -6.468135
            CHANNELS 3 Zrotation Xrotation Yrotation
            JOINT HandLeft
            {
              OFFSET 2.441431 -5.500973 -0.539794
              CHANNELS 3 Zrotation Xrotation Yrotation
              JOINT HandTipLeft
              {
                OFFSET -1.199213 -6.482010 -1.762419
                CHANNELS 3 Zrotation Xrotation Yrotation
                End Site
                {
                  OFFSET 0 0 0
                }
              }
              JOINT ThumbLeft
              {
                OFFSET -3.473737 1.755878 -2.017780
                CHANNELS 3 Zrotation Xrotation Yrotation
                End Site
                {
                  OFFSET 0 0 0
                }
              }
            }
          }
        }
      }
      JOINT ShoulderRight
      {
        OFFSET 17.101598 -2.857789 -0.627118
        CHANNELS 3 Zrotation Xrotation Yrotation
        JOINT ElbowRight
        {
          OFFSET 3.627077 -24.249064 -2.111964
          CHANNELS 3 Zrotation Xrotation Yrotation
          JOINT WristRight
          {
            OFFSET -0.839757 -20.685284 -7.609559
            CHANNELS 3 Zrotation Xrotation Yrotation
            JOINT HandRight
            {
              OFFSET -2.576509 -4.993027 -1.398267
              CHANNELS 3 Zrotation Xrotation Yrotation
              JOINT HandTipRight
              {
                OFFSET -0.119654 -6.797412 -1.854224
                CHANNELS 3 Zrotation Xrotation Yrotation
                End Site
                {
                  OFFSET 0 0 0
                }
              }
              JOINT ThumbRight
              {
                OFFSET -3.510829 1.572027 -0.669107
                CHANNELS 3 Zrotation Xrotation Yrotation
                End Site
                {
                  OFFSET 0 0 0
                }
              }
            }
          }
        }
      }
    }
  }
  JOINT HipLeft
  {
    OFFSET -7.488182 0.423159 -3.604590
    CHANNELS 3 Zrotation Xrotation Yrotation
    JOINT KneeLeft
    {
      OFFSET -1.326808 -26.838417 0.577858
      CHANNELS 3 Zrotation Xrotation Yrotation
      JOINT AnkleLeft
      {
        OFFSET 3.595524 -41.402403 13.183058
        CHANNELS 3 Zrotation Xrotation Yrotation
        JOINT FootLeft
        {
          OFFSET -2.169242 -7.414269 -10.190302
          CHANNELS 3 Zrotation Xrotation Yrotation
          End Site
          {
            OFFSET 0 0 0
          }
        }
      }
    }
  }
  JOINT HipRight
  {
    OFFSET 8.466841 0.662312 -3.519476
    CHANNELS 3 Zrotation Xrotation Yrotation
    JOINT KneeRight
    {
      OFFSET 6.507218 -32.160451 -2.149571
      CHANNELS 3 Zrotation Xrotation Yrotation
      JOINT AnkleRight
      {
        OFFSET 2.561636 -33.669880 -0.714027
        CHANNELS 3 Zrotation Xrotation Yrotation
        JOINT FootRight
        {
          OFFSET 0.792412 -8.837277 -10.045183
          CHANNELS 3 Zrotation Xrotation Yrotation
          End Site
          {
            OFFSET 0 0 0
          }
        }
      }
    }
  }
}
MOTION
Frames: 16
Frame Time: 0.033333
-59.126679 77.209612 420.128109 0.995585 -0.478729 7.427364 0.046593 -0.473267 -7.384077 0.000179 -0.200298 0.054726 -2.872760 3.105572 -0.154193 0.000000 0.000000 0.000000 1.404800 -0.802754 0.026568 2.291613 5.888774 -1.745960 2.767004 3.227185 3.575206 10.436812 -22.870319 -0.142612 0.000000 0.000000 0.000000 0.000000 0.000000 0.000000 3.241322 2.104146 -0.431715 -8.171771 -4.334352 1.579216 -2.344629 -3.488352 3.524545 6.549911 2.446225 -5.561436 0.000000 0.000000 0.000000 0.000000 0.000000 0.000000 -2.931330 1.772409 -7.467291 4.779480 -1.542148 0.943609 -2.227678 1.907612 -1.647001 0.000000 0.000000 0.000000 -0.171785 1.013621 -7.373433 -0.568823 -2.778977 -0.230888 0.403078 5.648718 -0.167019 0.000000 0.000000 0.000000
-60.058932 76.609187 420.584700 1.097142 -1.059487 8.351570 0.063226 -0.416073 -8.299259 0.074474 -0.185510 0.066844 -3.138018 4.217833 -0.111786 0.000000 0.000000 0.000000 2.798741 0.161913 -0.142209 2.760152 6.690663 -2.385124 4.589108 3.448728 4.353880 7.554300 -23.773964 -0.449650 0.000000 0.000000 0.000000 0.000000 0.000000 0.000000 3.520578 2.490726 -0.549201 -7.476017 -5.259714 1.289872 -1.554311 -3.898094 4.194123 4.955462 7.860293 -5.804708 0.000000 0.000000 0.000000 0.000000 0.000000 0.000000 -2.903085 2.731111 -8.370979 6.269240 -1.510552 1.500842 -4.087447 0.394893 -1.258894 0.000000 0.000000 0.000000 1.113276 2.849445 -8.135448 -1.237750 -4.842616 -0.500597 -0.165795 5.054387 -0.063269 0.000000 0.000000 0.000000
-61.096663 76.048884 421.221637 1.223889 -1.619499 8.463007 0.156242 -0.308143 -8.399292 0.130396 -0.148121 0.080301 -3.506435 5.234364 -0.075906 0.000000 0.000000 0.000000 4.389893 1.598271 -0.450353 2.810778 6.555409 -2.850142 8.601501 2.374433 4.405674 6.919863 -19.251054 -1.914941 0.000000 0.000000 0.000000 0.000000 0.000000 0.000000 3.740304 3.220034 -0.622407 -5.972542 -6.458921 0.662050 0.315382 -12.246845 9.007100 5.541787 19.865557 -11.261261 0.000000 0.000000 0.000000 0.000000 0.000000 0.000000 -2.553017 3.555576 -8.471510 7.356022 -0.792827 2.071076 -4.834269 -0.194567 -2.916894 0.000000 0.000000 0.000000 2.921667 5.245045 -8.086728 -2.159079 -7.495527 -0.872159 -1.673850 4.268546 0.878143 0.000000 0.000000 0.000000
-62.663590 75.620332 421.998344 1.204187 -1.952308 8.412033 0.104660 -0.216198 -8.348348 0.083521 -0.105076 0.073977 -1.858412 5.808425 0.073864 0.000000 0.000000 0.000000 6.314189 3.212985 -0.830128 0.531055 4.374815 -2.328590 11.316830 1.244577 3.464544 10.466489 -16.894834 -2.121534 0.000000 0.000000 0.000000 0.000000 0.000000 0.000000 5.384802 3.806062 -0.801844 -5.793397 -7.349950 0.213483 2.635702 -16.152116 11.711886 5.104786 25.753514 -13.986383 0.000000 0.000000 0.000000 0.000000 0.000000 0.000000 -2.183462 3.436300 -8.400242 8.872327 0.978541 2.659018 -6.363349 -0.336688 -4.523964 0.000000 0.000000 0.000000 5.125321 7.043970 -8.044916 -3.608450 -9.954271 -1.203848 -1.783316 4.218313 0.424751 0.000000 0.000000 0.000000
-64.403645 75.432213 422.994809 1.239036 -2.208186 8.757618 0.053414 -0.113749 -8.691645 0.129729 -0.031691 0.074554 0.705823 6.892159 0.288148 0.000000 0.000000 0.000000 7.952801 4.942361 -1.287563 0.406735 2.994504 -2.500593 13.274556 -6.379720 2.093070 21.966688 0.077232 -10.680937 0.000000 0.000000 0.000000 0.000000 0.000000 0.000000 8.652963 5.071415 -1.196085 -7.295992 -8.655466 -0.293174 1.421170 -9.133857 8.069598 2.221976 20.564708 -9.122574 0.000000 0.000000 0.000000 0.000000 0.000000 0.000000 -1.391578 3.220569 -8.742056 7.701391 3.114542 2.517167 -5.715604 -7.610507 -3.951280 0.000000 0.000000 0.000000 7.330770 8.771927 -8.464427 -4.624485 -11.980020 -1.477589 -2.076336 3.509316 -0.362056 0.000000 0.000000 0.000000
-66.058821 75.410778 423.824597 0.944292 -2.481939 8.939741 0.176543 0.222093 -8.889602 0.173930 0.033528 0.065988 4.879044 8.585295 0.555007 0.000000 0.000000 0.000000 9.529522 6.601821 -1.748046 1.670710 1.909596 -2.954231 16.505001 -13.848800 1.892862 22.888147 16.077597 -19.913310 0.000000 0.000000 0.000000 0.000000 0.000000 0.000000 9.360105 6.131506 -1.171105 -7.228343 -9.642808 -0.661892 1.064642 -9.875215 8.633828 0.858817 23.108885 -8.652992 0.000000 0.000000 0.000000 0.000000 0.000000 0.000000 -1.982025 2.376272 -8.852581 10.323871 5.255133 2.845812 -10.424983 -8.526062 -1.082040 0.000000 0.000000 0.000000 9.628329 10.125247 -8.809792 -5.565159 -13.534458 -1.682440 -2.507409 3.797334 -0.765749 0.000000 0.000000 0.000000
-67.028527 75.828801 424.652784 1.742663 -1.695044 10.611030 0.211872 0.249610 -10.531434 0.117460 0.072867 0.094159 8.850036 9.101963 0.831500 0.000000 0.000000 0.000000 9.668395 7.385564 -2.067538 4.185649 1.015363 -3.559101 16.117629 -17.859725 2.797959 20.354841 23.199056 -22.327501 0.000000 0.000000 0.000000 0.000000 0.000000 0.000000 9.633420 7.263544 -1.118515 -8.836213 -10.787499 -0.934790 2.160164 -10.239255 8.075089 -0.936907 25.368210 -7.547830 0.000000 0.000000 0.000000 0.000000 0.000000 0.000000 -6.292989 0.560565 -10.436786 13.352938 7.086910 2.405295 -12.559973 -2.141813 0.556946 0.000000 0.000000 0.000000 9.632693 10.709993 -10.265135 -4.552928 -14.797740 -1.740985 -3.252814 2.454713 -1.622268 0.000000 0.000000 0.000000
-67.868217 76.370052 425.709358 3.326088 -0.519348 13.320679 0.136028 0.157481 -13.202522 0.139285 0.094804 0.155581 11.034415 8.794439 1.115477 0.000000 0.000000 0.000000 8.899797 7.387063 -2.277435 6.829011 1.621242 -4.329265 14.530519 -21.912601 4.197074 18.034826 26.201103 -21.822692 0.000000 0.000000 0.000000 0.000000 0.000000 0.000000 10.617684 9.012793 -1.303721 -11.756642 -12.069173 -1.535132 -1.718080 -16.228435 11.412496 9.341402 30.409269 -14.634033 0.000000 0.000000 0.000000 0.000000 0.000000 0.000000 -12.375898 -0.444555 -13.202584 10.493622 6.075346 0.344757 -4.796588 23.831519 -2.803115 0.000000 0.000000 0.000000 8.164180 10.653508 -12.677844 -2.706195 -15.281983 -1.609914 -4.189274 1.340489 -2.262648 0.000000 0.000000 0.000000
-69.329142 76.624031 427.354316 4.455903 0.441638 17.441544 -0.186803 0.117662 -17.326540 0.249713 0.237173 0.189973 13.078496 8.123309 1.473643 0.000000 0.000000 0.000000 8.311582 7.087227 -2.342658 9.730700 2.743688 -5.207831 8.945464 -20.781552 5.609526 19.950112 24.044318 -22.028339 0.000000 0.000000 0.000000 0.000000 0.000000 0.000000 11.113348 9.765136 -1.355512 -14.386516 -13.085233 -1.809864 -1.244608 -19.879939 12.806491 12.611682 34.388567 -17.982255 0.000000 0.000000 0.000000 0.000000 0.000000 0.000000 -19.464086 0.081084 -17.335015 13.892672 6.868285 -0.535755 -5.940462 44.651730 -1.968679 0.000000 0.000000 0.000000 8.292064 10.677845 -16.686507 -1.095239 -15.346398 -1.381365 -6.177179 -0.104574 -2.259358 0.000000 0.000000 0.000000
-70.834459 76.645392 429.186555 5.843850 1.929638 21.787606 0.058504 0.083877 -21.704402 0.046798 0.102873 0.242515 14.380961 6.634891 2.017659 0.000000 0.000000 0.000000 6.824593 5.660254 -2.200125 12.282897 2.476047 -5.862022 -0.245177 -14.341203 6.414211 24.353161 15.257837 -19.871202 0.000000 0.000000 0.000000 0.000000 0.000000 0.000000 11.119355 9.590592 -1.359284 -18.004605 -14.110494 -1.882058 0.947925 -21.879308 13.068560 12.640678 35.694004 -18.988454 0.000000 0.000000 0.000000 0.000000 0.000000 0.000000 -26.095732 1.742832 -21.599017 20.493106 8.281514 -0.455541 -20.112033 58.122716 9.288748 0.000000 0.000000 0.000000 7.932313 10.314109 -20.907362 1.016040 -14.999995 -1.019194 -8.838328 -1.427825 -1.921873 0.000000 0.000000 0.000000
-72.884901 76.369082 431.283053 7.288852 3.716199 25.243296 0.070106 -0.069571 -25.240580 -0.062079 -0.016705 0.296642 16.823386 5.284566 2.825773 0.000000 0.000000 0.000000 5.719196 4.469722 -2.168168 14.294513 3.796769 -6.653146 -5.477967 -11.816666 7.813935 30.351928 11.985619 -21.815693 0.000000 0.000000 0.000000 0.000000 0.000000 0.000000 10.498574 8.280758 -1.228750 -21.683978 -14.813904 -1.588290 1.591804 -20.614134 11.585810 11.475042 32.262779 -17.335331 0.000000 0.000000 0.000000 0.000000 0.000000 0.000000 -32.648184 3.033249 -25.024496 32.470775 12.516482 0.288538 -52.042009 60.476153 33.608453 0.000000 0.000000 0.000000 7.795180 9.989575 -24.304700 2.873730 -14.505941 -0.637153 -11.561247 -3.411775 -1.955149 0.000000 0.000000 0.000000
-75.039083 75.693857 433.405414 8.317616 4.908992 27.931362 0.297906 0.009364 -28.016226 -0.111004 -0.096196 0.342060 18.985460 4.374516 3.610049 0.000000 0.000000 0.000000 4.943190 3.474682 -2.159220 15.457217 7.484286 -7.731494 -6.877564 -16.968265 8.156098 30.510821 14.419865 -22.859054 0.000000 0.000000 0.000000 0.000000 0.000000 0.000000 10.303714 7.401697 -1.144703 -25.219325 -15.819755 -1.474760 5.409936 -23.609720 12.491943 9.811918 35.596583 -18.260354 0.000000 0.000000 0.000000 0.000000 0.000000 0.000000 -36.242801 4.862598 -27.440290 55.293070 20.977428 1.414990 -84.404481 50.536433 45.445118 0.000000 0.000000 0.000000 8.391465 10.465437 -27.000116 4.743466 -14.330939 -0.227596 -14.567249 -5.978670 -1.947629 0.000000 0.000000 0.000000
-77.184996 74.748955 435.779646 9.722298 6.193945 29.200508 0.296108 -0.100640 -29.397760 -0.210392 -0.168692 0.393300 19.493400 3.761470 4.125610 0.000000 0.000000 0.000000 3.692921 2.476791 -2.174654 16.932391 10.550833 -8.822121 -8.331618 -20.209042 8.579251 33.613913 15.630988 -25.213976 0.000000 0.000000 0.000000 0.000000 0.000000 0.000000 9.522447 6.688497 -1.086106 -27.563313 -17.079057 -1.517821 11.974751 -30.712850 16.678412 10.979021 42.707936 -23.982514 0.000000 0.000000 0.000000 0.000000 0.000000 0.000000 -39.342669 5.830202 -28.682514 94.966825 34.622408 -4.649105 -116.887933 38.357600 40.856418 0.000000 0.000000 0.000000 8.906622 11.583788 -28.388556 5.511243 -15.019447 -0.000015 -16.611267 -7.184876 -2.022719 0.000000 0.000000 0.000000
-79.518167 73.764526 438.054834 11.120843 7.411678 29.525598 0.091214 -0.265406 -29.857003 -0.289722 -0.156487 0.432989 20.339139 2.753357 4.784723 0.000000 0.000000 0.000000 2.388781 1.468200 -2.183309 17.544895 12.460928 -9.402136 -13.294470 -22.252584 7.516346 44.057297 15.458161 -29.164132 0.000000 0.000000 0.000000 0.000000 0.000000 0.000000 9.414444 6.098786 -1.091342 -30.562468 -18.171989 -1.615432 14.495980 -29.918192 15.564384 7.920554 41.630812 -22.032868 0.000000 0.000000 0.000000 0.000000 0.000000 0.000000 -41.675610 5.543563 -29.337098 121.727483 39.968463 -14.386546 -135.091605 16.185595 34.238587 0.000000 0.000000 0.000000 9.496531 12.508428 -28.931198 5.041640 -15.777750 -0.023052 -16.440176 -8.147539 -3.408931 0.000000 0.000000 0.000000
-81.380632 72.872727 440.108769 12.422757 8.108325 28.291520 -0.000353 -0.330822 -28.733640 -0.220132 -0.064172 0.484471 20.978682 3.057081 5.076924 0.000000 0.000000 0.000000 1.058729 0.730791 -2.261029 20.600502 14.808074 -11.046355 -17.499450 -25.454033 7.068745 55.919566 15.680904 -35.941351 0.000000 0.000000 0.000000 0.000000 0.000000 0.000000 8.759525 5.822436 -1.152764 -32.221941 -19.125844 -1.820573 14.000877 -25.754106 12.534041 2.136332 35.837329 -16.062856 0.000000 0.000000 0.000000 0.000000 0.000000 0.000000 -41.916347 3.853903 -28.777997 133.766335 41.399370 -20.588175 -140.755819 -10.468724 16.133467 0.000000 0.000000 0.000000 9.624930 14.686978 -27.989665 4.924250 -17.749476 0.018415 -16.797100 -7.312538 -3.566981 0.000000 0.000000 0.000000
-82.563304 72.313634 441.672754 13.651877 8.771244 26.627721 -0.014349 -0.310554 -27.198900 -0.201675 0.025398 0.524619 22.074524 3.364504 5.477590 0.000000 0.000000 0.000000 -0.130726 -0.021836 -2.342160 23.440716 16.148866 -12.472675 -22.409652 -24.343781 7.226259 61.304037 13.669974 -37.003882 0.000000 0.000000 0.000000 0.000000 0.000000 0.000000 8.332288 6.035559 -1.214105 -33.881669 -20.253851 -2.364473 15.984980 -25.648972 12.128580 -2.354241 35.856108 -13.154839 0.000000 0.000000 0.000000 0.000000 0.000000 0.000000 -43.172918 2.121054 -27.837458 143.263772 40.630819 -24.143896 -147.127910 -16.353291 9.738848 0.000000 0.000000 0.000000 7.694918 15.764497 -26.455700 6.012098 -18.105628 0.275502 -17.386116 -7.048446 -3.522701 0.000000 0.000000 0.000000
